<svg xmlns="http://www.w3.org/2000/svg" width="1280" height="720" viewBox="0 0 1280 720">
  <defs>
    <linearGradient id="bg" x1="0" y1="0" x2="1" y2="1">
      <stop offset="0" stop-color="#02040a"/>
      <stop offset="0.55" stop-color="#07112b"/>
      <stop offset="1" stop-color="#0a0a0f"/>
    </linearGradient>
    <radialGradient id="glow" cx="0.78" cy="0.28" r="0.7">
      <stop offset="0" stop-color="#3b82f6" stop-opacity="0.55"/>
      <stop offset="1" stop-color="#3b82f6" stop-opacity="0"/>
    </radialGradient>
    <linearGradient id="word" x1="0" y1="0" x2="1" y2="0">
      <stop offset="0" stop-color="#93c5fd"/>
      <stop offset="1" stop-color="#3b82f6"/>
    </linearGradient>
  </defs>
  <rect width="1280" height="720" fill="url(#bg)"/>
  <rect width="1280" height="720" fill="url(#glow)"/>
  <g opacity="0.10" stroke="#3b82f6" stroke-width="1">
    <path d="M0 120 H1280 M0 240 H1280 M0 360 H1280 M0 480 H1280 M0 600 H1280"/>
    <path d="M160 0 V720 M320 0 V720 M480 0 V720 M640 0 V720 M800 0 V720 M960 0 V720 M1120 0 V720"/>
  </g>
  <g font-family="ui-monospace, SFMono-Regular, Menlo, Consolas, monospace">
    <text x="96" y="250" fill="#475569" font-size="150" font-weight="700" opacity="0.5">{ }</text>
    <text x="96" y="430" fill="url(#word)" font-size="96" font-weight="800" letter-spacing="-2">PaperScript</text>
    <text x="100" y="500" fill="#cbd5e1" font-size="34" font-weight="500">Minecraft plugins in TypeScript</text>
    <text x="102" y="548" fill="#64748b" font-size="24">Paper · GraalJS · hot reload · MiniMessage</text>
  </g>
  <g font-family="ui-monospace, SFMono-Regular, Menlo, Consolas, monospace" font-size="22" font-weight="600">
    <rect x="96" y="600" width="170" height="46" rx="23" fill="#0b1c3d" stroke="#1d4ed8" stroke-width="1.5"/>
    <text x="181" y="630" fill="#93c5fd" text-anchor="middle">1.18–1.21</text>
    <rect x="282" y="600" width="168" height="46" rx="23" fill="#141a2e" stroke="#334155" stroke-width="1.5"/>
    <text x="366" y="630" fill="#94a3b8" text-anchor="middle">1.12.2 soon</text>
    <rect x="466" y="600" width="120" height="46" rx="23" fill="#0b1c3d" stroke="#1d4ed8" stroke-width="1.5"/>
    <text x="526" y="630" fill="#93c5fd" text-anchor="middle">MIT</text>
  </g>
</svg>
