<svg width="800" height="450" viewBox="0 0 800 450" xmlns="http://www.w3.org/2000/svg">
  <defs>
    <linearGradient id="bg" x1="0%" y1="0%" x2="100%" y2="100%">
      <stop offset="0%" stop-color="#0f172a"/>
      <stop offset="100%" stop-color="#02040a"/>
    </linearGradient>
    <linearGradient id="sun" x1="0%" y1="0%" x2="100%" y2="100%">
      <stop offset="0%" stop-color="#f59e0b"/>
      <stop offset="100%" stop-color="#d97706"/>
    </linearGradient>
  </defs>
  <rect width="800" height="450" fill="url(#bg)"/>
  <circle cx="400" cy="180" r="110" fill="#0b1221" stroke="#1e293b" stroke-width="2"/>
  <circle cx="400" cy="180" r="42" fill="url(#sun)"/>
  <g stroke="#f59e0b" stroke-width="6" stroke-linecap="round">
    <line x1="400" y1="115" x2="400" y2="95"/>
    <line x1="400" y1="245" x2="400" y2="265"/>
    <line x1="335" y1="180" x2="315" y2="180"/>
    <line x1="465" y1="180" x2="485" y2="180"/>
    <line x1="354" y1="134" x2="340" y2="120"/>
    <line x1="446" y1="134" x2="460" y2="120"/>
    <line x1="354" y1="226" x2="340" y2="240"/>
    <line x1="446" y1="226" x2="460" y2="240"/>
  </g>
  <path d="M340 260 Q360 230 400 250 Q440 230 470 260" fill="none" stroke="#3b82f6" stroke-width="8" stroke-linecap="round"/>
  <text x="400" y="370" font-family="Inter, Arial, sans-serif" font-size="36" font-weight="700" fill="#f8fafc" text-anchor="middle">Weather Dashboard</text>
  <text x="400" y="405" font-family="Inter, Arial, sans-serif" font-size="16" fill="#94a3b8" text-anchor="middle">Forecasts, charts and current conditions</text>
</svg>
